<svg style="position: absolute; width: 0; height: 0; overflow: hidden;" version="1.1" xmlns="http://www.w3.org/2000/svg" xmlns:xlink="http://www.w3.org/1999/xlink">
    <symbol id="behance" viewBox="0 0 32 32">
        <path d=" M 1 6.745 L 1 25.255 L 9.943 25.255 C 10.771 25.255 16.477 25.087 16.477 19.877 C 16.477 16.621 14.237 15.515 13.101 15.187 C 13.937 14.792 15.602 13.854 15.602 11.341 C 15.602 9.942 15.402 6.745 9.693 6.745 L 1 6.745 Z  M 21.386 8.465 L 21.386 10.153 L 28.296 10.153 L 28.296 8.466 L 21.386 8.465 Z  M 5.064 9.903 L 8.879 9.903 C 9.24 9.903 11.662 9.712 11.662 12.029 C 11.662 14.01 9.911 14.218 9.192 14.218 L 5.066 14.218 L 5.064 9.903 Z  M 25.013 11.685 C 19.787 11.685 18.697 16.223 18.697 18.188 C 18.697 24.024 23.481 24.692 25.013 24.692 C 29.145 24.692 30.316 22.019 30.797 20.534 L 27.796 20.534 C 27.679 20.917 26.803 22.159 25.138 22.159 C 22.347 22.159 22.106 19.978 22.106 19.002 L 30.986 19.002 C 31.166 15.625 29.688 11.685 25.013 11.685 Z  M 24.919 14.218 C 25.752 14.218 26.424 14.46 26.827 14.905 C 27.229 15.356 27.527 16.012 27.608 16.875 L 22.105 16.875 C 22.121 16.637 22.176 16.363 22.262 16.062 C 22.348 15.754 22.481 15.461 22.7 15.187 C 22.918 14.917 23.223 14.683 23.575 14.499 C 23.935 14.311 24.38 14.218 24.919 14.218 Z  M 5.065 17.001 L 9.474 17.001 C 10.349 17.001 12.412 17.138 12.412 19.658 C 12.412 22.101 9.814 22.097 9.411 22.097 L 5.064 22.097 L 5.065 17.001 Z " />
    </symbol>
    <symbol id="instagram" viewBox="0 0 32 32">
        <path  d=" M 9.707 1 C 4.902 1.01 1.01 4.902 1 9.707 L 1 22.3 C 1.013 27.102 4.905 30.991 9.707 31 L 22.3 31 C 27.102 30.987 30.991 27.095 31 22.293 L 31 9.707 C 30.99 4.902 27.098 1.01 22.293 1 L 9.707 1 Z  M 9.707 3.308 L 22.293 3.308 C 23.992 3.302 25.623 3.975 26.824 5.176 C 28.025 6.377 28.698 8.008 28.692 9.707 L 28.692 22.293 C 28.698 23.991 28.027 25.621 26.827 26.822 C 25.627 28.024 23.998 28.697 22.3 28.692 L 9.707 28.692 C 8.009 28.698 6.379 28.027 5.178 26.827 C 3.976 25.627 3.303 23.998 3.308 22.3 L 3.308 9.707 C 3.302 8.008 3.975 6.377 5.176 5.176 C 6.377 3.975 8.008 3.302 9.707 3.308 Z  M 25.231 5.615 C 24.594 5.615 24.077 6.132 24.077 6.769 C 24.077 7.406 24.594 7.923 25.231 7.923 C 25.868 7.923 26.385 7.406 26.385 6.769 C 26.385 6.132 25.868 5.615 25.231 5.615 Z  M 16 7.923 C 11.544 7.936 7.936 11.544 7.923 16 C 7.936 20.456 11.544 24.064 16 24.077 C 20.456 24.064 24.064 20.456 24.077 16 C 24.064 11.544 20.456 7.936 16 7.923 L 16 7.923 Z  M 16 10.231 C 19.201 10.231 21.769 12.799 21.769 16 C 21.769 19.201 19.201 21.769 16 21.769 C 14.468 21.774 12.998 21.168 11.915 20.085 C 10.832 19.002 10.226 17.532 10.231 16 C 10.231 12.799 12.799 10.231 16 10.231 Z " />
     </symbol>
    <symbol id="github" viewBox="0 0 32 32">
        <path d=" M 16 1.469 C 7.75 1.469 1 8.219 1 16.469 C 1 22.844 5 28.281 10.563 30.469 C 11.125 30.344 11.625 29.844 11.625 29.219 L 11.625 26.469 L 10 26.469 C 8.813 26.469 7.813 25.906 7.313 25.031 C 7.188 24.781 7.063 24.469 6.938 24.156 C 6.688 23.469 6.375 22.719 5.75 22.281 C 5.5 22.094 5.375 21.719 5.438 21.406 C 5.563 21.094 5.875 20.844 6.438 20.906 C 7.063 20.969 8 21.656 8.563 22.406 C 9.063 23.031 9.438 23.406 10.188 23.406 L 10.375 23.406 C 10.938 23.406 12.313 23.406 12.563 23.156 C 12.75 22.906 12.875 22.719 13.063 22.531 C 9.313 21.781 7.188 19.594 7.188 16.281 C 7.188 15.156 7.5 14.031 8.188 13.031 C 7.938 12.094 7.375 9.656 8.563 8.594 L 8.75 8.406 L 9 8.406 C 10.625 8.406 11.813 9.094 12.563 9.656 C 14.75 8.844 17.25 8.844 19.438 9.656 C 20.125 9.094 21.313 8.406 23 8.406 L 23.25 8.406 L 23.438 8.594 C 24.625 9.719 24.063 12.094 23.813 13.031 C 24.438 14.031 24.813 15.156 24.813 16.281 C 24.813 19.594 22.688 21.781 19 22.531 C 19.938 23.531 20.438 25.031 20.438 26.219 L 20.438 29.281 C 20.438 29.906 20.875 30.406 21.5 30.531 C 27 28.281 31 22.844 31 16.469 C 31 8.219 24.25 1.469 16 1.469 Z " />
    </symbol>
    <symbol id="twitter" viewBox="0 0 32 32">
        <path  d=" M 31 6.7 C 29.877 7.197 28.685 7.523 27.465 7.666 C 28.749 6.897 29.711 5.687 30.17 4.262 C 28.962 4.978 27.641 5.484 26.264 5.757 C 24.537 3.911 21.857 3.309 19.507 4.238 C 17.156 5.167 15.612 7.438 15.614 9.966 C 15.614 10.45 15.668 10.918 15.776 11.367 C 10.825 11.123 6.211 8.785 3.088 4.936 C 2.539 5.875 2.251 6.944 2.254 8.032 C 2.254 10.166 3.338 12.051 4.993 13.155 C 4.015 13.124 3.059 12.859 2.205 12.382 L 2.205 12.461 C 2.203 15.392 4.269 17.917 7.143 18.496 C 6.236 18.744 5.285 18.781 4.363 18.603 C 5.168 21.11 7.477 22.829 10.11 22.881 C 7.532 24.905 4.254 25.82 1 25.425 C 3.813 27.235 7.088 28.196 10.434 28.193 C 21.756 28.193 27.949 18.813 27.949 10.678 C 27.949 10.416 27.939 10.146 27.929 9.882 C 29.132 9.011 30.172 7.934 31 6.701 L 31 6.7 Z " />
    </symbol>
    <symbol id="linkedin" viewBox="0 0 32 32">
        <path d=" M 31 19.242 L 31 30.333 L 24.57 30.333 L 24.57 19.985 C 24.57 17.385 23.64 15.611 21.313 15.611 C 19.536 15.611 18.479 16.807 18.013 17.963 C 17.844 18.377 17.8 18.952 17.8 19.531 L 17.8 30.333 L 11.368 30.333 C 11.368 30.333 11.455 12.807 11.368 10.991 L 17.799 10.991 L 17.799 13.732 C 17.786 13.753 17.769 13.775 17.757 13.795 L 17.799 13.795 L 17.799 13.732 C 18.654 12.416 20.18 10.536 23.596 10.536 C 27.828 10.536 31 13.301 31 19.242 Z  M 4.64 1.667 C 2.439 1.667 1 3.11 1 5.008 C 1 6.865 2.398 8.352 4.554 8.352 L 4.597 8.352 C 6.84 8.352 8.235 6.865 8.235 5.008 C 8.193 3.11 6.84 1.667 4.64 1.667 Z  M 1.382 30.333 L 7.812 30.333 L 7.812 10.991 L 1.382 10.991 L 1.382 30.333 Z " />
    </symbol>
</svg>