<?xml version="1.0" standalone="no"?><!-- Generator: Gravit.io --><svg xmlns="http://www.w3.org/2000/svg" xmlns:xlink="http://www.w3.org/1999/xlink" style="isolation:isolate" viewBox="187.495 127 265.006 530.057" width="265.006" height="530.057"><ellipse vector-effect="non-scaling-stroke" cx="227.49547767923912" cy="230.1578947368421" rx="40" ry="103.15789473684211" fill="rgb(30,47,48)"/><ellipse vector-effect="non-scaling-stroke" cx="408.99999999999943" cy="230.1578947368421" rx="40" ry="103.15789473684211" fill="rgb(30,47,48)"/><path d=" M 315 323 L 327 340 L 336 357 L 348 381 L 363 406 L 375 431 Q 379.125 437.125 379 446 Q 378.875 454.875 363 456 L 345 453 L 323 456 L 305 456 Q 297.75 456.625 295 446 Q 292.25 435.375 311 436 L 334 436 Q 347.75 423.875 338 406 Q 328.25 388.125 323 381 L 307 353 L 295 333 Q 290.625 325.75 298 317 Q 305.375 308.25 315 323 Z " fill="rgb(30,47,48)"/><path d=" M 284.368 472.731 Q 267.608 480.618 251.342 494.912 Q 230.146 502.799 210.429 518.08 Q 197.613 521.037 205.5 570.33 Q 231.625 529.417 255.285 526.952 Q 266.13 515.615 301.62 518.08 L 320.351 514.629 Q 314.929 494.42 320.351 487.026 Q 299.156 476.181 284.368 472.731 Z " fill="rgb(30,47,48)"/><path d=" M 370.629 472.731 Q 387.389 480.618 403.655 494.912 Q 424.851 502.799 444.568 518.08 Q 457.384 521.037 449.497 570.33 Q 423.372 529.417 399.712 526.952 Q 388.868 515.615 353.377 518.08 L 334.646 514.629 Q 340.068 494.42 334.646 487.026 Q 355.842 476.181 370.629 472.731 Z " fill="rgb(30,47,48)"/><path d=" M 310.221 577.203 Q 325.715 569.456 341.209 577.203 Q 345.977 614.151 327.503 657.057 Q 303.07 607 310.221 577.203 Z " fill="rgb(30,47,48)"/></svg>