<svg style="position: absolute; width: 0; height: 0; overflow: hidden;" version="1.1" xmlns="http://www.w3.org/2000/svg" xmlns:xlink="http://www.w3.org/1999/xlink">
    <symbol id="behance" viewBox="0 0 32 32">
        <path d="  M 0 6.1 L 0 25.9 L 9.5 25.9 C 10.4 25.9 16.5 25.7 16.5 20.1 C 16.5 16.7 14.1 15.5 12.9 15.1 C 13.8 14.7 15.6 13.7 15.6 11 C 15.6 9.5 15.4 6.1 9.3 6.1 L 0 6.1 Z  M 21.8 7.9 L 21.8 9.7 L 29.1 9.7 L 29.1 7.9 L 21.8 7.9 Z  M 4.3 9.5 L 8.4 9.5 C 8.8 9.5 11.4 9.3 11.4 11.8 C 11.4 13.9 9.5 14.1 8.7 14.1 L 4.3 14.1 L 4.3 9.5 Z  M 25.6 11.4 C 20 11.4 18.9 16.2 18.9 18.3 C 18.9 24.6 24 25.3 25.6 25.3 C 30.1 25.3 31.3 22.4 31.8 20.8 L 28.6 20.8 C 28.5 21.3 27.5 22.6 25.8 22.6 C 22.8 22.6 22.5 20.3 22.5 19.2 L 32 19.2 C 32.2 15.6 30.6 11.4 25.6 11.4 Z  M 25.5 14.1 C 26.4 14.1 27.1 14.4 27.6 14.8 C 28 15.3 28.3 16 28.4 16.9 L 22.5 16.9 C 22.5 16.7 22.6 16.4 22.7 16.1 C 22.8 15.7 22.9 15.4 23.2 15.1 C 23.4 14.8 23.7 14.6 24.1 14.4 C 24.5 14.2 25 14.1 25.5 14.1 Z  M 4.3 17.1 L 9 17.1 C 10 17.1 12.2 17.2 12.2 19.9 C 12.2 22.5 9.4 22.5 9 22.5 L 4.3 22.5 L 4.3 17.1 Z "/>
    </symbol>
    <symbol id="instagram" viewBox="0 0 32 32">
        <path d=" M 8.9 0 C 4 0 0 4 0 8.9 L 0 23.1 C 0 28 4 32 8.9 32 L 23.1 32 C 28 32 32 28 32 23.1 L 32 8.9 C 32 4 28 0 23.1 0 L 8.9 0 Z  M 26.7 3.6 C 27.6 3.6 28.4 4.4 28.4 5.3 C 28.4 6.3 27.6 7.1 26.7 7.1 C 25.7 7.1 24.9 6.3 24.9 5.3 C 24.9 4.4 25.7 3.6 26.7 3.6 Z  M 16 7.1 C 20.9 7.1 24.9 11.1 24.9 16 C 24.9 20.9 20.9 24.9 16 24.9 C 11.1 24.9 7.1 20.9 7.1 16 C 7.1 11.1 11.1 7.1 16 7.1 Z  M 16 10.7 C 14.1 10.7 12.3 11.7 11.4 13.3 C 10.4 15 10.4 17 11.4 18.7 C 12.3 20.3 14.1 21.3 16 21.3 C 19 21.3 21.3 18.9 21.3 16 C 21.3 13.1 18.9 10.7 16 10.7 L 16 10.7 Z " />
     </symbol>
    <symbol id="github" viewBox="0 0 32 32">
        <path d="  M 16 0.4 C 7.2 0.4 0 7.6 0 16.4 C 0 23.5 4.6 29.5 10.9 31.6 C 11.7 31.7 12 31.2 12 30.8 C 12 30.4 12 29.4 12 28.1 C 7.6 29.1 6.6 25.9 6.6 25.9 C 5.9 24.1 4.8 23.6 4.8 23.6 C 3.4 22.6 5 22.6 5 22.6 C 6.6 22.7 7.4 24.3 7.4 24.3 C 8.8 26.7 11.2 26 12.1 25.6 C 12.2 24.6 12.6 23.9 13.1 23.5 C 9.5 23.1 5.8 21.7 5.8 15.6 C 5.8 13.8 6.4 12.4 7.4 11.3 C 7.3 10.9 6.7 9.2 7.6 7 C 7.6 7 8.9 6.6 12 8.7 C 13.3 8.3 14.6 8.1 16 8.1 C 17.4 8.1 18.7 8.3 20 8.7 C 23.1 6.6 24.4 7 24.4 7 C 25.3 9.2 24.7 10.9 24.6 11.3 C 25.6 12.4 26.2 13.8 26.2 15.6 C 26.2 21.7 22.5 23.1 18.9 23.5 C 19.5 23.9 20 24.9 20 26.4 C 20 28.6 20 30.3 20 30.8 C 20 31.2 20.3 31.7 21.1 31.6 C 27.4 29.5 32 23.5 32 16.4 C 32 7.6 24.8 0.4 16 0.4 Z " />
    </symbol>
    <symbol id="twitter" viewBox="0 0 32 32">
        <path  d="  M 32 6.1 C 30.8 6.6 29.6 7 28.3 7.2 C 29.6 6.4 30.7 5 31.2 3.6 C 29.9 4.4 28.5 4.9 27.1 5.2 C 25.8 3.8 24 3 22.2 3 C 18.6 3 15.7 6 15.6 9.5 C 15.6 10.1 15.6 10.6 15.8 11 C 10.3 10.7 5.5 8.2 2.4 4.2 C 1.7 5.2 1.4 6.4 1.4 7.6 C 1.4 9.8 2.6 11.8 4.3 13 C 3.3 12.9 2.2 12.6 1.4 12.2 L 1.4 12.3 C 1.4 15.5 3.7 18.2 6.6 18.7 C 6.1 18.9 5.5 19 4.9 19 C 4.5 19 4.1 19 3.7 18.9 C 4.5 21.5 6.9 23.4 9.8 23.4 C 7.5 25.1 4.7 26.2 1.7 26.2 C 1.2 26.2 0.6 26.2 0.1 26 C 3 27.9 6.5 29 10.1 29 C 22.2 29 28.7 19 28.7 10.3 L 28.7 9.5 C 30 8.6 31.1 7.4 32 6.1" />
    </symbol>
    <symbol id="linkedin" viewBox="0 0 32 32">
        <path d=" M 28 1 L 4 1 C 2.3 1 1 2.3 1 4 L 1 28 C 1 29.7 2.3 31 4 31 L 28 31 C 29.7 31 31 29.7 31 28 L 31 4 C 31 2.3 29.7 1 28 1 Z  M 10.2 25 L 5.5 25 L 5.5 12.1 L 10.2 12.1 L 10.2 25 Z  M 7.8 10.6 C 6.4 10.6 5.5 9.7 5.5 8.5 C 5.5 7.3 6.4 6.4 7.9 6.4 C 9.3 6.4 10.2 7.3 10.2 8.5 C 10.2 9.7 9.3 10.6 7.8 10.6 Z  M 26.5 25 L 21.8 25 L 21.8 18 C 21.8 16 20.7 15.6 20.2 15.6 C 19.8 15.6 18.3 15.8 18.3 18 L 18.3 25 L 13.6 25 L 13.6 12.1 L 18.3 12.1 L 18.3 13.9 C 18.8 12.8 20 12.1 22.3 12.1 C 24.5 12.1 26.3 13.9 26.3 18 L 26.3 25 L 26.5 25 Z " />
    </symbol>
    <symbol id="html5" viewBox="0 0 32 32">
        <path d=" M 29.5 1 L 2.5 1 L 5.5 28 L 16 31 L 26.5 28 L 29.5 1 Z  M 23.2 10.1 L 11.8 10.1 L 12 13.4 L 23 13.4 L 22.1 23.1 L 16 25 L 15.9 25 L 9.9 23 L 9.5 19.1 L 12.5 19.1 L 12.6 20.6 L 16 21.4 L 19.4 20.6 L 19.7 16.5 L 9.3 16.5 L 8.5 7 L 23.5 7 L 23.2 10.1 Z " />
    </symbol>
    <symbol id="javascript" viewBox="0 0 32 32">
        <path d=" M 29.1 1 L 2.9 1 C 1.9 1 1 1.9 1 2.9 L 1 29.1 C 1 30.1 1.9 31 2.9 31 L 29.1 31 C 30.1 31 31 30.1 31 29.1 L 31 2.9 C 31 1.9 30.1 1 29.1 1 L 29.1 1 Z  M 17.4 24 C 17.4 26.8 15.8 28.1 13.3 28.1 C 11.1 28.1 9.5 26.7 8.9 25.3 L 11.1 23.9 C 11.5 24.7 12.2 25.3 13.1 25.3 C 14 25.3 14.6 24.9 14.6 23.6 L 14.6 14.6 L 17.4 14.6 L 17.4 24 Z  M 23.6 28.1 C 21.1 28.1 19.7 26.9 18.9 25.3 L 21 23.9 C 21.6 24.8 22.2 25.7 23.6 25.7 C 24.7 25.7 25.3 25.2 25.3 24.4 C 25.3 23.4 24.7 23.1 23.4 22.6 L 22.7 22.3 C 20.8 21.4 19.5 20.4 19.5 18.2 C 19.5 16.1 21 14.6 23.5 14.6 C 25.2 14.6 26.4 15.2 27.3 16.8 L 25.2 18.1 C 24.8 17.3 24.2 16.9 23.5 16.9 C 22.7 16.9 22.2 17.5 22.2 18.1 C 22.2 18.9 22.7 19.3 23.8 19.8 L 24.5 20.1 C 26.8 21.1 28.1 22.1 28.1 24.3 C 28.1 26.8 26.2 28.1 23.6 28.1 Z " />
    </symbol>
    <symbol id="design" viewBox="0 0 32 32">
        <path d=" M 25.9 14.1 L 17.9 6.1 L 21.3 1 L 31 10.7 L 25.9 14.1 Z  M 17.5 7.6 C 15.3 9.3 12.5 10 7.5 10 L 7 10 L 6.9 10.5 C 5.6 16.6 1.5 28.7 1 30.1 L 13 18.1 C 13 18 13.1 18 13.1 18 C 13 17.8 12.9 17.5 12.9 17.2 C 12.9 16.4 13.4 15.7 14.2 15.5 C 15 15.2 15.8 15.5 16.2 16.2 C 16.7 16.9 16.6 17.8 16.1 18.4 C 15.6 19 14.7 19.2 14 18.9 C 14 18.9 14 19 13.9 19 L 1.9 31 C 3.3 30.5 15.4 26.4 21.5 25.1 L 22 25 L 22 24.5 C 22 19.5 22.7 16.7 24.4 14.5 L 17.5 7.6 Z " />
    </symbol>
    <symbol id="tools" viewBox="0 0 32 32">
        <path d=" M 18 0.5 C 17.7 0.5 17.4 0.7 17.3 1 L 17.1 2.1 C 16.1 2.4 15.2 2.9 14.5 3.6 L 13.4 3.3 C 13.1 3.2 12.8 3.4 12.6 3.6 L 11.6 5.3 C 11.5 5.6 11.5 5.9 11.7 6.1 L 12.5 6.9 C 12.4 7.4 12.4 7.9 12.4 8.4 C 12.4 8.9 12.4 9.4 12.5 9.9 L 11.7 10.7 C 11.5 10.9 11.5 11.3 11.6 11.5 L 12.6 13.2 C 12.8 13.5 13.1 13.6 13.4 13.5 L 14.5 13.2 C 15.2 13.9 16.1 14.4 17.1 14.7 L 17.3 15.8 C 17.4 16.1 17.7 16.3 18 16.3 L 19.9 16.3 C 20.3 16.3 20.5 16.1 20.6 15.8 L 20.9 14.7 C 21.8 14.4 22.7 13.9 23.5 13.2 L 24.6 13.5 C 24.8 13.6 25.2 13.5 25.3 13.2 L 26.3 11.5 C 26.5 11.3 26.4 10.9 26.2 10.7 L 25.4 9.9 C 25.5 9.4 25.5 8.9 25.5 8.4 C 25.5 7.9 25.5 7.4 25.4 6.9 L 26.2 6.1 C 26.4 5.9 26.5 5.6 26.3 5.3 L 25.3 3.6 C 25.2 3.4 24.8 3.2 24.6 3.3 L 23.5 3.6 C 22.7 2.9 21.8 2.4 20.9 2.1 L 20.6 1 C 20.5 0.7 20.3 0.5 19.9 0.5 L 18 0.5 Z  M 19 6.5 C 20.1 6.5 20.9 7.3 20.9 8.4 C 20.9 9.5 20.1 10.4 19 10.4 C 17.9 10.4 17 9.5 17 8.4 C 17 7.3 17.9 6.5 19 6.5 Z  M 7.4 12.4 C 7.1 12.4 6.9 12.6 6.8 12.9 L 6.5 14 C 5.6 14.3 4.7 14.8 3.9 15.5 L 2.8 15.2 C 2.5 15.1 2.2 15.2 2.1 15.5 L 1.1 17.2 C 0.9 17.5 1 17.8 1.2 18 L 2 18.8 C 1.9 19.3 1.8 19.8 1.8 20.3 C 1.8 20.8 1.9 21.3 2 21.8 L 1.2 22.6 C 1 22.8 0.9 23.1 1.1 23.4 L 2.1 25.1 C 2.2 25.4 2.5 25.5 2.8 25.4 L 3.9 25.1 C 4.7 25.8 5.6 26.3 6.5 26.6 L 6.8 27.7 C 6.9 28 7.1 28.2 7.4 28.2 L 9.4 28.2 C 9.7 28.2 10 28 10.1 27.7 L 10.3 26.6 C 11.3 26.3 12.2 25.8 12.9 25.1 L 14 25.4 C 14.3 25.5 14.6 25.4 14.8 25.1 L 15.8 23.4 C 15.9 23.1 15.9 22.8 15.7 22.6 L 14.8 21.8 C 15 21.3 15 20.8 15 20.3 C 15 19.8 15 19.3 14.8 18.8 L 15.7 18 C 15.9 17.8 15.9 17.5 15.8 17.2 L 14.8 15.5 C 14.6 15.2 14.3 15.1 14 15.2 L 12.9 15.5 C 12.2 14.8 11.3 14.3 10.3 14 L 10.1 12.9 C 10 12.6 9.7 12.4 9.4 12.4 L 7.4 12.4 Z  M 22.6 15.7 C 22.3 15.7 22 15.9 21.9 16.2 L 21.7 17.3 C 20.7 17.6 19.8 18.1 19.1 18.8 L 18 18.5 C 17.7 18.4 17.4 18.5 17.2 18.8 L 16.2 20.5 C 16.1 20.7 16.1 21.1 16.3 21.3 L 17.2 22.1 C 17 22.6 17 23.1 17 23.6 C 17 24.1 17 24.6 17.2 25.1 L 16.3 25.9 C 16.1 26.1 16.1 26.4 16.2 26.7 L 17.2 28.4 C 17.4 28.6 17.7 28.8 18 28.7 L 19.1 28.4 C 19.8 29.1 20.7 29.6 21.7 29.9 L 21.9 31 C 22 31.3 22.3 31.5 22.6 31.5 L 24.6 31.5 C 24.9 31.5 25.1 31.3 25.2 31 L 25.5 29.9 C 26.4 29.6 27.3 29.1 28.1 28.4 L 29.2 28.7 C 29.5 28.8 29.8 28.6 29.9 28.4 L 30.9 26.7 C 31.1 26.4 31 26.1 30.8 25.9 L 30 25.1 C 30.1 24.6 30.2 24.1 30.2 23.6 C 30.2 23.1 30.1 22.6 30 22.1 L 30.8 21.3 C 31 21.1 31.1 20.7 30.9 20.5 L 29.9 18.8 C 29.8 18.5 29.5 18.4 29.2 18.5 L 28.1 18.8 C 27.3 18.1 26.4 17.6 25.5 17.3 L 25.2 16.2 C 25.1 15.9 24.9 15.7 24.6 15.7 L 22.6 15.7 Z  M 8.4 18.3 C 9.5 18.3 10.4 19.2 10.4 20.3 C 10.4 21.4 9.5 22.3 8.4 22.3 C 7.3 22.3 6.5 21.4 6.5 20.3 C 6.5 19.2 7.3 18.3 8.4 18.3 Z  M 23.6 20.9 C 25 20.9 26.2 22.1 26.2 23.6 C 26.2 25 25 26.2 23.6 26.2 C 22.1 26.2 20.9 25 20.9 23.6 C 20.9 22.1 22.1 20.9 23.6 20.9 Z " />
    </symbol>
</svg>