<svg style="position: absolute; width: 0; height: 0; overflow: hidden;" version="1.1" xmlns="http://www.w3.org/2000/svg" xmlns:xlink="http://www.w3.org/1999/xlink">
    <symbol id="behance" viewBox="0 0 32 32">
        <path d=" M 0 6.128 L 0 25.872 L 9.539 25.872 C 10.423 25.872 16.508 25.693 16.508 20.136 C 16.508 16.663 14.12 15.482 12.907 15.132 C 13.8 14.712 15.576 13.711 15.576 11.031 C 15.576 9.538 15.362 6.128 9.272 6.128 L 0 6.128 Z  M 21.745 7.962 L 21.745 9.763 L 29.116 9.763 L 29.116 7.964 L 21.745 7.962 Z  M 4.335 9.496 L 8.405 9.496 C 8.789 9.496 11.373 9.292 11.373 11.764 C 11.373 13.877 9.505 14.099 8.738 14.099 L 4.337 14.099 L 4.335 9.496 Z  M 25.614 11.397 C 20.04 11.397 18.877 16.238 18.877 18.334 C 18.877 24.559 23.98 25.271 25.614 25.271 C 30.021 25.271 31.271 22.421 31.784 20.836 L 28.582 20.836 C 28.457 21.244 27.523 22.57 25.748 22.57 C 22.77 22.57 22.513 20.243 22.513 19.202 L 31.985 19.202 C 32.177 15.6 30.6 11.397 25.614 11.397 Z  M 25.514 14.099 C 26.402 14.099 27.119 14.357 27.549 14.832 C 27.978 15.313 28.295 16.013 28.382 16.934 L 22.512 16.934 C 22.529 16.68 22.587 16.387 22.679 16.066 C 22.771 15.737 22.913 15.425 23.147 15.132 C 23.379 14.845 23.705 14.595 24.081 14.399 C 24.464 14.198 24.939 14.099 25.514 14.099 Z  M 4.336 17.067 L 9.039 17.067 C 9.972 17.067 12.173 17.213 12.173 19.902 C 12.173 22.508 9.401 22.504 8.971 22.504 L 4.335 22.504 L 4.336 17.067 Z " />
    </symbol>
    <symbol id="instagram" viewBox="0 0 32 32">
        <path d=" M 9.333 1 C 4.731 1 1 4.731 1 9.333 L 1 22.667 C 1 27.269 4.731 31 9.333 31 L 22.667 31 C 27.269 31 31 27.269 31 22.667 L 31 9.333 C 31 4.731 27.269 1 22.667 1 L 9.333 1 Z  M 26 4.333 C 26.917 4.333 27.667 5.083 27.667 6 C 27.667 6.917 26.917 7.667 26 7.667 C 25.083 7.667 24.333 6.917 24.333 6 C 24.333 5.083 25.083 4.333 26 4.333 Z  M 16 7.667 C 20.602 7.667 24.333 11.398 24.333 16 C 24.333 20.602 20.602 24.333 16 24.333 C 11.398 24.333 7.667 20.602 7.667 16 C 7.667 11.398 11.398 7.667 16 7.667 Z  M 16 11 C 14.213 11.001 12.562 11.954 11.669 13.502 C 10.776 15.05 10.777 16.957 11.671 18.504 C 12.565 20.051 14.216 21.004 16.003 21.003 C 18.766 21.002 21.004 18.762 21.003 16 C 21.002 13.238 18.762 10.999 16 11 L 16 11 Z " />
     </symbol>
    <symbol id="github" viewBox="0 0 32 32">
        <path d=" M 16 1.469 C 7.75 1.469 1 8.219 1 16.469 C 1 22.844 5 28.281 10.563 30.469 C 11.125 30.344 11.625 29.844 11.625 29.219 L 11.625 26.469 L 10 26.469 C 8.813 26.469 7.813 25.906 7.313 25.031 C 7.188 24.781 7.063 24.469 6.938 24.156 C 6.688 23.469 6.375 22.719 5.75 22.281 C 5.5 22.094 5.375 21.719 5.438 21.406 C 5.563 21.094 5.875 20.844 6.438 20.906 C 7.063 20.969 8 21.656 8.563 22.406 C 9.063 23.031 9.438 23.406 10.188 23.406 L 10.375 23.406 C 10.938 23.406 12.313 23.406 12.563 23.156 C 12.75 22.906 12.875 22.719 13.063 22.531 C 9.313 21.781 7.188 19.594 7.188 16.281 C 7.188 15.156 7.5 14.031 8.188 13.031 C 7.938 12.094 7.375 9.656 8.563 8.594 L 8.75 8.406 L 9 8.406 C 10.625 8.406 11.813 9.094 12.563 9.656 C 14.75 8.844 17.25 8.844 19.438 9.656 C 20.125 9.094 21.313 8.406 23 8.406 L 23.25 8.406 L 23.438 8.594 C 24.625 9.719 24.063 12.094 23.813 13.031 C 24.438 14.031 24.813 15.156 24.813 16.281 C 24.813 19.594 22.688 21.781 19 22.531 C 19.938 23.531 20.438 25.031 20.438 26.219 L 20.438 29.281 C 20.438 29.906 20.875 30.406 21.5 30.531 C 27 28.281 31 22.844 31 16.469 C 31 8.219 24.25 1.469 16 1.469 Z " />
    </symbol>
    <symbol id="twitter" viewBox="0 0 32 32">
        <path  d=" M 31 6.7 C 29.877 7.197 28.685 7.523 27.465 7.666 C 28.749 6.897 29.711 5.687 30.17 4.262 C 28.962 4.978 27.641 5.484 26.264 5.757 C 24.537 3.911 21.857 3.309 19.507 4.238 C 17.156 5.167 15.612 7.438 15.614 9.966 C 15.614 10.45 15.668 10.918 15.776 11.367 C 10.825 11.123 6.211 8.785 3.088 4.936 C 2.539 5.875 2.251 6.944 2.254 8.032 C 2.254 10.166 3.338 12.051 4.993 13.155 C 4.015 13.124 3.059 12.859 2.205 12.382 L 2.205 12.461 C 2.203 15.392 4.269 17.917 7.143 18.496 C 6.236 18.744 5.285 18.781 4.363 18.603 C 5.168 21.11 7.477 22.829 10.11 22.881 C 7.532 24.905 4.254 25.82 1 25.425 C 3.813 27.235 7.088 28.196 10.434 28.193 C 21.756 28.193 27.949 18.813 27.949 10.678 C 27.949 10.416 27.939 10.146 27.929 9.882 C 29.132 9.011 30.172 7.934 31 6.701 L 31 6.7 Z " />
    </symbol>
    <symbol id="linkedin" viewBox="0 0 32 32">
        <path d=" M 31 19.242 L 31 30.333 L 24.57 30.333 L 24.57 19.985 C 24.57 17.385 23.64 15.611 21.313 15.611 C 19.536 15.611 18.479 16.807 18.013 17.963 C 17.844 18.377 17.8 18.952 17.8 19.531 L 17.8 30.333 L 11.368 30.333 C 11.368 30.333 11.455 12.807 11.368 10.991 L 17.799 10.991 L 17.799 13.732 C 17.786 13.753 17.769 13.775 17.757 13.795 L 17.799 13.795 L 17.799 13.732 C 18.654 12.416 20.18 10.536 23.596 10.536 C 27.828 10.536 31 13.301 31 19.242 Z  M 4.64 1.667 C 2.439 1.667 1 3.11 1 5.008 C 1 6.865 2.398 8.352 4.554 8.352 L 4.597 8.352 C 6.84 8.352 8.235 6.865 8.235 5.008 C 8.193 3.11 6.84 1.667 4.64 1.667 Z  M 1.382 30.333 L 7.812 30.333 L 7.812 10.991 L 1.382 10.991 L 1.382 30.333 Z " />
    </symbol>
</svg>